<svg id="visual" viewBox="0 0 900 600" width="900" height="600" xmlns="http://www.w3.org/2000/svg" xmlns:xlink="http://www.w3.org/1999/xlink" version="1.1"><rect x="0" y="0" width="900" height="600" fill="#002233"></rect><path d="M0 476L21.5 466C43 456 86 436 128.8 420.5C171.7 405 214.3 394 257.2 402.2C300 410.3 343 437.7 385.8 454.8C428.7 472 471.3 479 514.2 467.3C557 455.7 600 425.3 642.8 413C685.7 400.7 728.3 406.3 771.2 410.5C814 414.7 857 417.3 878.5 418.7L900 420L900 601L878.5 601C857 601 814 601 771.2 601C728.3 601 685.7 601 642.8 601C600 601 557 601 514.2 601C471.3 601 428.7 601 385.8 601C343 601 300 601 257.2 601C214.3 601 171.7 601 128.8 601C86 601 43 601 21.5 601L0 601Z" fill="#0066FF" stroke-linecap="round" stroke-linejoin="miter"></path></svg>