<svg xmlns="http://www.w3.org/2000/svg" xmlns:xlink="http://www.w3.org/1999/xlink" width="500" zoomAndPan="magnify" viewBox="0 0 375 374.999991" height="500" preserveAspectRatio="xMidYMid meet" version="1.0"><defs><g/><clipPath id="015940b7bc"><path d="M 68.746094 72.921875 L 298.667969 72.921875 L 298.667969 302.84375 L 68.746094 302.84375 Z M 68.746094 72.921875 " clip-rule="nonzero"/></clipPath><clipPath id="11a962263f"><path d="M 183.707031 72.921875 C 120.214844 72.921875 68.746094 124.390625 68.746094 187.882812 C 68.746094 251.375 120.214844 302.84375 183.707031 302.84375 C 247.199219 302.84375 298.667969 251.375 298.667969 187.882812 C 298.667969 124.390625 247.199219 72.921875 183.707031 72.921875 Z M 183.707031 72.921875 " clip-rule="nonzero"/></clipPath></defs><g clip-path="url(#015940b7bc)"><g clip-path="url(#11a962263f)"><path fill="#000000" d="M 68.746094 72.921875 L 298.667969 72.921875 L 298.667969 302.84375 L 68.746094 302.84375 Z M 68.746094 72.921875 " fill-opacity="1" fill-rule="nonzero"/></g></g><g fill="#ffffff" fill-opacity="1"><g transform="translate(157.963471, 276.883319)"><g><path d="M 13.984375 0 L 13.984375 -115.484375 L 54.359375 -115.484375 C 62.398438 -115.484375 69.035156 -114.101562 74.265625 -111.34375 C 79.492188 -108.582031 83.382812 -104.878906 85.9375 -100.234375 C 88.5 -95.585938 89.78125 -90.445312 89.78125 -84.8125 C 89.78125 -79.851562 88.90625 -75.753906 87.15625 -72.515625 C 85.40625 -69.285156 83.109375 -66.726562 80.265625 -64.84375 C 77.429688 -62.96875 74.359375 -61.578125 71.046875 -60.671875 L 71.046875 -59.546875 C 74.585938 -59.316406 78.140625 -58.070312 81.703125 -55.8125 C 85.273438 -53.5625 88.265625 -50.332031 90.671875 -46.125 C 93.078125 -41.914062 94.28125 -36.765625 94.28125 -30.671875 C 94.28125 -24.890625 92.960938 -19.6875 90.328125 -15.0625 C 87.703125 -10.4375 83.550781 -6.769531 77.875 -4.0625 C 72.195312 -1.351562 64.8125 0 55.71875 0 Z M 27.96875 -12.40625 L 55.71875 -12.40625 C 64.851562 -12.40625 71.347656 -14.179688 75.203125 -17.734375 C 79.054688 -21.285156 80.984375 -25.597656 80.984375 -30.671875 C 80.984375 -34.585938 79.984375 -38.207031 77.984375 -41.53125 C 75.992188 -44.851562 73.15625 -47.519531 69.46875 -49.53125 C 65.789062 -51.550781 61.429688 -52.5625 56.390625 -52.5625 L 27.96875 -52.5625 Z M 27.96875 -64.734375 L 53.90625 -64.734375 C 60.226562 -64.734375 65.566406 -66.554688 69.921875 -70.203125 C 74.285156 -73.847656 76.46875 -78.71875 76.46875 -84.8125 C 76.46875 -89.882812 74.695312 -94.195312 71.15625 -97.75 C 67.625 -101.300781 62.023438 -103.078125 54.359375 -103.078125 L 27.96875 -103.078125 Z M 27.96875 -64.734375 "/></g></g></g><g fill="#ffffff" fill-opacity="1"><g transform="translate(110.583682, 245.633319)"><g><path d="M 58.203125 -115.484375 L 72.1875 -115.484375 L 72.1875 -32.9375 C 72.1875 -21.84375 69.203125 -13.316406 63.234375 -7.359375 C 57.273438 -1.398438 49.28125 1.578125 39.25 1.578125 C 32.9375 1.578125 27.316406 0.421875 22.390625 -1.890625 C 17.460938 -4.203125 13.585938 -7.5 10.765625 -11.78125 C 7.953125 -16.070312 6.546875 -21.164062 6.546875 -27.0625 L 20.296875 -27.0625 C 20.296875 -22.175781 22.082031 -18.25 25.65625 -15.28125 C 29.226562 -12.3125 33.757812 -10.828125 39.25 -10.828125 C 45.300781 -10.828125 49.972656 -12.710938 53.265625 -16.484375 C 56.554688 -20.265625 58.203125 -25.75 58.203125 -32.9375 Z M 58.203125 -115.484375 "/></g></g></g><g fill="#ffffff" fill-opacity="1"><g transform="translate(117.318341, 123.786934)"><g><path d="M 2.25 -1.90625 C 1.625 -1.34375 1.015625 -1.046875 0.421875 -1.015625 C -0.171875 -0.984375 -0.734375 -1.207031 -1.265625 -1.6875 L -0.484375 -2.640625 C 0.171875 -2.085938 0.847656 -2.128906 1.546875 -2.765625 C 1.835938 -3.035156 2.015625 -3.304688 2.078125 -3.578125 C 2.148438 -3.847656 2.085938 -4.09375 1.890625 -4.3125 C 1.710938 -4.507812 1.488281 -4.582031 1.21875 -4.53125 C 0.957031 -4.488281 0.601562 -4.347656 0.15625 -4.109375 C -0.269531 -3.867188 -0.65625 -3.695312 -1 -3.59375 C -1.351562 -3.488281 -1.6875 -3.472656 -2 -3.546875 C -2.3125 -3.628906 -2.613281 -3.832031 -2.90625 -4.15625 C -3.1875 -4.46875 -3.351562 -4.816406 -3.40625 -5.203125 C -3.46875 -5.597656 -3.421875 -5.992188 -3.265625 -6.390625 C -3.117188 -6.785156 -2.859375 -7.148438 -2.484375 -7.484375 C -1.992188 -7.929688 -1.472656 -8.160156 -0.921875 -8.171875 C -0.378906 -8.191406 0.117188 -8.003906 0.578125 -7.609375 L -0.125 -6.703125 C -0.695312 -7.128906 -1.25 -7.097656 -1.78125 -6.609375 C -2.039062 -6.378906 -2.1875 -6.125 -2.21875 -5.84375 C -2.257812 -5.5625 -2.1875 -5.316406 -2 -5.109375 C -1.800781 -4.890625 -1.570312 -4.789062 -1.3125 -4.8125 C -1.050781 -4.84375 -0.679688 -4.988281 -0.203125 -5.25 C 0.203125 -5.476562 0.578125 -5.648438 0.921875 -5.765625 C 1.265625 -5.878906 1.585938 -5.90625 1.890625 -5.84375 C 2.203125 -5.78125 2.507812 -5.582031 2.8125 -5.25 C 3.082031 -4.945312 3.238281 -4.601562 3.28125 -4.21875 C 3.332031 -3.832031 3.269531 -3.4375 3.09375 -3.03125 C 2.914062 -2.632812 2.632812 -2.257812 2.25 -1.90625 Z M 2.25 -1.90625 "/></g></g></g><g fill="#ffffff" fill-opacity="1"><g transform="translate(127.304732, 115.397215)"><g><path d="M 3.296875 -2.078125 C 2.691406 -1.671875 2.097656 -1.441406 1.515625 -1.390625 C 0.941406 -1.335938 0.394531 -1.453125 -0.125 -1.734375 C -0.644531 -2.023438 -1.109375 -2.484375 -1.515625 -3.109375 C -1.921875 -3.722656 -2.160156 -4.347656 -2.234375 -4.984375 C -2.304688 -5.617188 -2.207031 -6.21875 -1.9375 -6.78125 C -1.664062 -7.351562 -1.222656 -7.84375 -0.609375 -8.25 C -0.0664062 -8.613281 0.488281 -8.804688 1.0625 -8.828125 C 1.644531 -8.859375 2.191406 -8.726562 2.703125 -8.4375 C 3.222656 -8.144531 3.675781 -7.710938 4.0625 -7.140625 C 4.488281 -6.492188 4.734375 -5.851562 4.796875 -5.21875 C 4.859375 -4.582031 4.757812 -3.988281 4.5 -3.4375 C 4.25 -2.894531 3.847656 -2.441406 3.296875 -2.078125 Z M 2.625 -3.03125 C 2.96875 -3.269531 3.21875 -3.5625 3.375 -3.90625 C 3.53125 -4.257812 3.578125 -4.648438 3.515625 -5.078125 C 3.460938 -5.503906 3.28125 -5.953125 2.96875 -6.421875 C 2.570312 -7.003906 2.101562 -7.375 1.5625 -7.53125 C 1.03125 -7.6875 0.507812 -7.597656 0 -7.265625 C -0.363281 -7.023438 -0.625 -6.71875 -0.78125 -6.34375 C -0.9375 -5.976562 -0.988281 -5.578125 -0.9375 -5.140625 C -0.894531 -4.710938 -0.726562 -4.28125 -0.4375 -3.84375 C -0.0195312 -3.207031 0.457031 -2.820312 1 -2.6875 C 1.539062 -2.5625 2.082031 -2.675781 2.625 -3.03125 Z M 2.625 -3.03125 "/></g></g></g><g fill="#ffffff" fill-opacity="1"><g transform="translate(140.100841, 107.650338)"><g><path d="M 2.0625 -7.578125 L -0.734375 -6.265625 L 0.078125 -4.53125 L 2.71875 -5.765625 L 3.203125 -4.75 L 0.5625 -3.515625 L 1.8125 -0.859375 L 0.671875 -0.3125 L -2.359375 -6.75 L 1.578125 -8.609375 Z M 2.0625 -7.578125 "/></g></g></g><g fill="#ffffff" fill-opacity="1"><g transform="translate(151.47229, 102.808038)"><g><path d="M 3.46875 -8.5625 L 3.671875 -7.421875 L 1.578125 -6.75 L 3.375 -1.0625 L 2.109375 -0.671875 L 0.3125 -6.359375 L -1.859375 -5.671875 L -2.203125 -6.765625 Z M 3.46875 -8.5625 "/></g></g></g><g fill="#ffffff" fill-opacity="1"><g transform="translate(163.887541, 99.310305)"><g><path d="M 7.453125 -8.296875 L 8.671875 -8.46875 L 7.6875 -1.140625 L 6.234375 -0.921875 L 4.15625 -6.09375 L 3.421875 -0.5 L 1.953125 -0.28125 L -0.84375 -7.0625 L 0.453125 -7.25 L 2.515625 -2.0625 L 3.21875 -7.65625 L 4.71875 -7.890625 L 6.765625 -2.734375 Z M 7.453125 -8.296875 "/></g></g></g><g fill="#ffffff" fill-opacity="1"><g transform="translate(180.763198, 97.522999)"><g><path d="M -0.09375 0 L 3.0625 -7.0625 L 4.15625 -7.046875 L 6.953125 0.125 L 5.625 0.09375 L 5.015625 -1.53125 L 1.921875 -1.59375 L 1.21875 0.015625 Z M 2.375 -2.671875 L 4.609375 -2.640625 L 3.5625 -5.453125 Z M 2.375 -2.671875 "/></g></g></g><g fill="#ffffff" fill-opacity="1"><g transform="translate(194.807005, 98.314758)"><g><path d="M 6.46875 -0.1875 L 6.59375 0.84375 C 6.445312 0.925781 6.273438 0.976562 6.078125 1 C 5.878906 1.03125 5.671875 1.03125 5.453125 1 C 4.710938 0.875 4.1875 0.445312 3.875 -0.28125 L 3.125 -2 C 3.050781 -2.1875 2.960938 -2.320312 2.859375 -2.40625 C 2.753906 -2.488281 2.632812 -2.539062 2.5 -2.5625 L 2.453125 -2.5625 L 1.96875 0.328125 L 0.71875 0.125 L 1.875 -6.890625 L 4.046875 -6.53125 C 4.941406 -6.382812 5.585938 -6.085938 5.984375 -5.640625 C 6.378906 -5.203125 6.523438 -4.664062 6.421875 -4.03125 C 6.359375 -3.632812 6.21875 -3.304688 6 -3.046875 C 5.789062 -2.796875 5.519531 -2.613281 5.1875 -2.5 C 4.863281 -2.382812 4.515625 -2.332031 4.140625 -2.34375 C 4.316406 -2.207031 4.46875 -2.003906 4.59375 -1.734375 L 5.015625 -0.828125 C 5.128906 -0.585938 5.238281 -0.414062 5.34375 -0.3125 C 5.457031 -0.207031 5.613281 -0.140625 5.8125 -0.109375 C 6.039062 -0.078125 6.257812 -0.101562 6.46875 -0.1875 Z M 3.8125 -5.5 L 2.953125 -5.640625 L 2.609375 -3.578125 L 3.40625 -3.453125 C 3.9375 -3.359375 4.34375 -3.367188 4.625 -3.484375 C 4.90625 -3.609375 5.078125 -3.859375 5.140625 -4.234375 C 5.253906 -4.910156 4.8125 -5.332031 3.8125 -5.5 Z M 3.8125 -5.5 "/></g></g></g><g fill="#ffffff" fill-opacity="1"><g transform="translate(208.00591, 101.025823)"><g><path d="M 6.84375 -4.109375 L 3.6875 -5.109375 L 3.140625 -3.375 L 6.140625 -2.4375 L 5.8125 -1.359375 L 2.8125 -2.296875 L 2.25 -0.484375 L 5.515625 0.546875 L 5.09375 1.59375 L 0.703125 0.21875 L 2.828125 -6.5625 L 7.1875 -5.1875 Z M 6.84375 -4.109375 "/></g></g></g><g fill="#ffffff" fill-opacity="1"><g transform="translate(220.157025, 105.388868)"><g/></g></g><g fill="#ffffff" fill-opacity="1"><g transform="translate(228.842135, 109.639485)"><g><path d="M 0.625 0.390625 L 4.359375 -5.65625 L 6.15625 -4.546875 C 7.332031 -3.828125 8.066406 -3.023438 8.359375 -2.140625 C 8.648438 -1.265625 8.488281 -0.332031 7.875 0.65625 C 7.5 1.269531 7.035156 1.722656 6.484375 2.015625 C 5.929688 2.304688 5.332031 2.425781 4.6875 2.375 C 4.039062 2.320312 3.390625 2.09375 2.734375 1.6875 Z M 2.34375 0.078125 L 3.3125 0.6875 C 4.019531 1.125 4.660156 1.285156 5.234375 1.171875 C 5.804688 1.054688 6.300781 0.664062 6.71875 0 C 7.144531 -0.695312 7.273438 -1.328125 7.109375 -1.890625 C 6.941406 -2.460938 6.46875 -2.992188 5.6875 -3.484375 L 4.859375 -4 Z M 2.34375 0.078125 "/></g></g></g><g fill="#ffffff" fill-opacity="1"><g transform="translate(240.999699, 117.840357)"><g><path d="M 7.921875 -1.15625 L 5.390625 -3.296875 L 4.203125 -1.90625 L 6.609375 0.125 L 5.890625 1 L 3.484375 -1.03125 L 2.25 0.421875 L 4.875 2.625 L 4.09375 3.4375 L 0.5625 0.46875 L 5.140625 -4.96875 L 8.640625 -2.015625 Z M 7.921875 -1.15625 "/></g></g></g><g fill="#ffffff" fill-opacity="1"><g transform="translate(250.521925, 126.477139)"><g><path d="M 8.796875 -0.84375 L 9.671875 0.125 L 2.640625 2.9375 L 1.4375 1.59375 L 5.28125 -4.765625 L 6.21875 -3.734375 L 2.90625 1.59375 Z M 8.796875 -0.84375 "/></g></g></g><g fill="#ffffff" fill-opacity="1"><g transform="translate(259.132337, 136.854459)"><g><path d="M 7.9375 1.0625 L 6.078125 -1.6875 L 4.5625 -0.65625 L 6.328125 1.953125 L 5.390625 2.578125 L 3.625 -0.03125 L 2.046875 1.03125 L 3.96875 3.875 L 2.984375 4.4375 L 0.40625 0.609375 L 6.3125 -3.359375 L 8.875 0.4375 Z M 7.9375 1.0625 "/></g></g></g><g fill="#ffffff" fill-opacity="1"><g transform="translate(265.889456, 147.810046)"><g><path d="M 0.328125 0.65625 L 6.703125 -2.484375 L 7.265625 -1.3125 L 1.90625 1.328125 L 3.3125 4.171875 L 2.25 4.578125 Z M 0.328125 0.65625 "/></g></g></g><g fill="#ffffff" fill-opacity="1"><g transform="translate(270.954717, 159.055118)"><g><path d="M 1.109375 3.734375 C 0.878906 3.046875 0.816406 2.414062 0.921875 1.84375 C 1.035156 1.269531 1.300781 0.769531 1.71875 0.34375 C 2.132812 -0.0703125 2.691406 -0.390625 3.390625 -0.609375 C 4.097656 -0.835938 4.769531 -0.898438 5.40625 -0.796875 C 6.039062 -0.703125 6.59375 -0.445312 7.0625 -0.03125 C 7.539062 0.375 7.894531 0.925781 8.125 1.625 C 8.320312 2.25 8.351562 2.84375 8.21875 3.40625 C 8.082031 3.96875 7.804688 4.457031 7.390625 4.875 C 6.972656 5.289062 6.4375 5.609375 5.78125 5.828125 C 5.039062 6.066406 4.351562 6.128906 3.71875 6.015625 C 3.09375 5.910156 2.550781 5.660156 2.09375 5.265625 C 1.632812 4.878906 1.304688 4.367188 1.109375 3.734375 Z M 2.21875 3.34375 C 2.34375 3.738281 2.550781 4.054688 2.84375 4.296875 C 3.144531 4.535156 3.503906 4.6875 3.921875 4.75 C 4.347656 4.8125 4.832031 4.753906 5.375 4.578125 C 6.039062 4.359375 6.519531 4.007812 6.8125 3.53125 C 7.113281 3.0625 7.171875 2.539062 6.984375 1.96875 C 6.847656 1.550781 6.625 1.21875 6.3125 0.96875 C 6 0.71875 5.628906 0.554688 5.203125 0.484375 C 4.785156 0.421875 4.328125 0.46875 3.828125 0.625 C 3.109375 0.851562 2.609375 1.207031 2.328125 1.6875 C 2.054688 2.175781 2.019531 2.726562 2.21875 3.34375 Z M 2.21875 3.34375 "/></g></g></g><g fill="#ffffff" fill-opacity="1"><g transform="translate(274.977148, 173.446357)"><g><path d="M 0.328125 1.96875 L 0.125 0.71875 L 7.140625 -0.421875 L 7.53125 2.046875 C 7.6875 2.960938 7.617188 3.6875 7.328125 4.21875 C 7.035156 4.757812 6.539062 5.085938 5.84375 5.203125 C 5.144531 5.316406 4.550781 5.144531 4.0625 4.6875 C 3.570312 4.238281 3.25 3.515625 3.09375 2.515625 L 2.9375 1.546875 Z M 6.484375 2.171875 L 6.296875 1 L 4 1.375 L 4.171875 2.421875 C 4.265625 3.015625 4.425781 3.429688 4.65625 3.671875 C 4.882812 3.910156 5.203125 3.992188 5.609375 3.921875 C 6.003906 3.859375 6.269531 3.6875 6.40625 3.40625 C 6.539062 3.125 6.566406 2.710938 6.484375 2.171875 Z M 6.484375 2.171875 "/></g></g></g><g fill="#ffffff" fill-opacity="1"><g transform="translate(276.629141, 186.788405)"><g><path d="M 6.109375 5.171875 L 6.03125 1.859375 L 4.203125 1.90625 L 4.265625 5.046875 L 3.140625 5.078125 L 3.078125 1.9375 L 1.171875 1.96875 L 1.25 5.390625 L 0.125 5.34375 L 0.015625 0.734375 L 7.125 0.578125 L 7.234375 5.15625 Z M 6.109375 5.171875 "/></g></g></g><g fill="#ffffff" fill-opacity="1"><g transform="translate(276.433909, 199.642529)"><g><path d="M 0.46875 6.4375 L -0.546875 6.640625 C -0.628906 6.492188 -0.6875 6.316406 -0.71875 6.109375 C -0.757812 5.910156 -0.769531 5.707031 -0.75 5.5 C -0.65625 4.75 -0.25 4.203125 0.46875 3.859375 L 2.140625 3.03125 C 2.328125 2.945312 2.457031 2.847656 2.53125 2.734375 C 2.613281 2.628906 2.664062 2.507812 2.6875 2.375 L 2.6875 2.328125 L -0.234375 1.984375 L -0.09375 0.734375 L 6.96875 1.5625 L 6.71875 3.75 C 6.613281 4.644531 6.34375 5.300781 5.90625 5.71875 C 5.476562 6.132812 4.945312 6.304688 4.3125 6.234375 C 3.914062 6.179688 3.582031 6.054688 3.3125 5.859375 C 3.050781 5.660156 2.859375 5.398438 2.734375 5.078125 C 2.609375 4.753906 2.546875 4.40625 2.546875 4.03125 C 2.410156 4.207031 2.207031 4.363281 1.9375 4.5 L 1.046875 4.96875 C 0.804688 5.09375 0.640625 5.210938 0.546875 5.328125 C 0.460938 5.453125 0.410156 5.609375 0.390625 5.796875 C 0.359375 6.023438 0.382812 6.238281 0.46875 6.4375 Z M 5.671875 3.546875 L 5.765625 2.6875 L 3.6875 2.453125 L 3.59375 3.25 C 3.53125 3.78125 3.566406 4.179688 3.703125 4.453125 C 3.835938 4.734375 4.09375 4.898438 4.46875 4.953125 C 5.144531 5.023438 5.546875 4.554688 5.671875 3.546875 Z M 5.671875 3.546875 "/></g></g></g></svg>